# xmcd
# 
# Track frame offsets:
#     182
#     19222
#     44497
#     94442
#     112622
#     137867
# 
# Disc length: 2346
# 
# Revision: 7
# Processed by: cddbd v1.5.2PL0 Copyright (c) Steve Scherf et al.
# Submitted via: fre:ac v1.1beta1pre4
# 
DISCID=4c092806
DTITLE=Led Zeppelin - Physical Graffiti [CD1]
DYEAR=1975
DGENRE=Rock
TTITLE0=Custard Pie
TTITLE1=The Rover
TTITLE2=In My Time Of Dying
TTITLE3=Houses Of The Holy
TTITLE4=Trampled Under Foot
TTITLE5=Kashmir
EXTD=
EXTT0=
EXTT1=
EXTT2=
EXTT3=
EXTT4=
EXTT5=
PLAYORDER=
